<svg width="396" height="312" viewBox="0 0 396 312" fill="none" xmlns="http://www.w3.org/2000/svg">
<path d="M136.999 374.92C66.0969 374.92 8.63705 318.624 8.63705 249.202C8.63705 179.779 66.0969 123.484 136.999 123.484C207.902 123.484 265.361 179.779 265.361 249.202C265.361 318.624 207.902 374.92 136.999 374.92Z" stroke="#E5E5E5"/>
<path d="M150.564 379.901C71.2336 379.901 6.94161 316.914 6.94161 239.236C6.94162 161.559 71.2336 98.5718 150.564 98.5718C229.894 98.5718 294.186 161.559 294.186 239.236C294.186 316.914 229.894 379.901 150.564 379.901Z" stroke="#E5E5E5"/>
<path d="M161.585 384.884C74.7631 384.884 4.39812 315.949 4.39813 230.934C4.39813 145.919 74.7632 76.983 161.585 76.983C248.406 76.983 318.771 145.919 318.771 230.934C318.771 315.949 248.406 384.884 161.585 384.884Z" stroke="#E5E5E5"/>
<path d="M177.693 388.205C84.3162 388.205 8.63732 314.065 8.63732 222.629C8.63733 131.194 84.3163 57.0533 177.693 57.0533C271.069 57.0533 346.748 131.194 346.748 222.629C346.748 314.065 271.069 388.205 177.693 388.205Z" stroke="#E5E5E5"/>
<path d="M193.376 391.527C93.679 391.527 12.876 312.368 12.876 214.741C12.876 117.114 93.679 37.9548 193.377 37.9548C293.074 37.9548 373.877 117.114 373.877 214.741C373.877 312.368 293.074 391.527 193.376 391.527Z" stroke="#E5E5E5"/>
<path d="M196.804 388.948C87.2738 388.948 -1.49998 301.981 -1.49998 194.724C-1.49997 87.4668 87.2739 0.499987 196.804 0.499992C306.334 0.499996 395.108 87.4669 395.108 194.724C395.108 301.982 306.334 388.948 196.804 388.948Z" stroke="#E5E5E5"/>
</svg>
