<svg width="116" height="114" viewBox="0 0 116 114" fill="none" xmlns="http://www.w3.org/2000/svg">
<path d="M109.275 16.68C99.8077 11.15 84.1957 24.47 80.2288 28.1C81.029 25.7979 82.4153 23.733 84.257 22.1C84.3002 22.0669 84.3347 22.0243 84.3578 21.9756C84.3809 21.9269 84.3919 21.8736 84.3899 21.82C84.3901 21.7684 84.3771 21.7176 84.3521 21.6722C84.3271 21.6268 84.2909 21.5883 84.2468 21.56C83.3698 20.9802 82.3402 20.6607 81.2818 20.64C81.8265 19.9837 82.5262 19.4669 83.3206 19.1342C84.115 18.8014 84.9803 18.6627 85.8417 18.73C85.9053 18.7392 85.9702 18.7299 86.0284 18.7032C86.0866 18.6765 86.1355 18.6337 86.1689 18.58C86.2012 18.5253 86.2182 18.4632 86.2182 18.4C86.2182 18.3368 86.2012 18.2747 86.1689 18.22C85.751 17.6016 85.1735 17.1021 84.4949 16.7719C83.8163 16.4418 83.0606 16.2928 82.3042 16.34C83.6436 15.34 86.6801 14.98 87.907 14.94C87.9724 14.9394 88.0363 14.9201 88.0907 14.8846C88.1452 14.8491 88.1879 14.7988 88.2137 14.74C88.2388 14.6827 88.2473 14.6197 88.2383 14.558C88.2293 14.4963 88.2031 14.4381 88.1626 14.39C86.9786 13.0431 85.3002 12.2061 83.4902 12.06C85.1874 10.06 90.2176 9.45998 90.2687 9.44998C90.3405 9.44459 90.4085 9.41621 90.4621 9.3692C90.5157 9.3222 90.5519 9.25921 90.5652 9.19C90.5821 9.15127 90.5909 9.10965 90.5913 9.06757C90.5916 9.02548 90.5835 8.98375 90.5674 8.94473C90.5513 8.90572 90.5274 8.87019 90.4972 8.84021C90.467 8.81023 90.431 8.78636 90.3914 8.76999C88.7957 7.77614 86.9866 7.15667 85.1056 6.95999C87.1504 4.47999 93.6529 2.95999 93.7244 2.95999C93.7938 2.94411 93.8564 2.90776 93.904 2.8559C93.9515 2.80403 93.9816 2.73913 93.9902 2.66998C93.9982 2.60176 93.985 2.53277 93.9521 2.47208C93.9193 2.41139 93.8684 2.36185 93.8062 2.32999C89.4508 0.109987 84.1343 2.26999 83.889 2.32999C77.7546 5.32999 77.4785 15.28 78.1227 22.17C75.7098 13.8 70.4649 0.69 61.1918 0C60.8851 0 53.6567 -2.3365e-05 49.6898 4.56998C49.6498 4.62559 49.6283 4.69196 49.6283 4.75998C49.6283 4.828 49.6498 4.89436 49.6898 4.94998C49.7256 5.00977 49.7786 5.05784 49.8423 5.0881C49.906 5.11837 49.9775 5.12947 50.0476 5.12C50.1397 5.12 58.7789 3.74998 62.3164 5.84998C60.1584 6.9444 58.3029 8.53285 56.9079 10.48C56.8662 10.5387 56.8438 10.6085 56.8438 10.68C56.8438 10.7515 56.8662 10.8213 56.9079 10.88C56.9495 10.9372 57.0083 10.9804 57.076 11.0037C57.1437 11.027 57.2172 11.0292 57.2862 11.01C57.3578 11.01 63.7682 9.25999 66.7127 10.96C65.676 11.4515 64.7503 12.1409 63.99 12.9875C63.2297 13.8342 62.6503 14.821 62.2857 15.89C62.2646 15.9508 62.2621 16.0162 62.2784 16.0784C62.2948 16.1406 62.3293 16.1967 62.3778 16.24C62.4236 16.2851 62.482 16.3158 62.5458 16.3283C62.6095 16.3408 62.6756 16.3344 62.7356 16.31C64.259 15.76 68.2259 14.67 70.2707 15.41C69.3292 15.6779 68.4804 16.192 67.8156 16.8968C67.1508 17.6017 66.6953 18.4706 66.498 19.41C66.4881 19.4726 66.4962 19.5366 66.5215 19.5949C66.5468 19.6532 66.5882 19.7035 66.6411 19.74C66.6971 19.7716 66.7606 19.7882 66.8252 19.7882C66.8898 19.7882 66.9533 19.7716 67.0092 19.74C68.0205 19.2307 69.1471 18.9801 70.2841 19.0116C71.4211 19.0431 72.5314 19.3556 73.5116 19.92C72.2351 20.4256 71.1421 21.2927 70.3729 22.41C70.3478 22.4562 70.3347 22.5077 70.3347 22.56C70.3347 22.6123 70.3478 22.6638 70.3729 22.71C70.3918 22.7593 70.4219 22.8038 70.4608 22.8401C70.4998 22.8765 70.5466 22.9038 70.5978 22.92C73.6071 23.9759 76.2846 25.7781 78.368 28.15C73.3174 26.24 56.182 20.49 50.1703 28.15C50.0272 28.36 46.6431 33.35 48.1255 38.24C48.146 38.3056 48.1862 38.3636 48.2409 38.4064C48.2956 38.4493 48.3624 38.4749 48.4323 38.48H48.4834C48.5447 38.4736 48.6032 38.4518 48.6534 38.4168C48.7035 38.3817 48.7436 38.3346 48.7696 38.28C48.7696 38.21 51.7551 31.77 54.8427 30.28C54.6585 32.2525 54.9528 34.2396 55.7015 36.08C55.7253 36.1458 55.7697 36.2025 55.8285 36.242C55.8873 36.2816 55.9574 36.3019 56.0287 36.3C56.1022 36.2989 56.1734 36.2751 56.2322 36.232C56.2909 36.1889 56.3342 36.1287 56.3558 36.06C56.3558 36.01 58.0428 30.93 60.5579 29.62C60.4459 30.5555 60.5237 31.5034 60.7868 32.4094C61.05 33.3155 61.4934 34.1618 62.0915 34.9C62.1325 34.949 62.1871 34.9855 62.2487 35.005C62.3104 35.0245 62.3765 35.0262 62.4391 35.01C62.5021 34.9975 62.5599 34.9671 62.6054 34.9226C62.6509 34.8782 62.6819 34.8216 62.6947 34.76C62.9912 33.5 63.9829 30.4 65.3836 29.26C65.1699 30.0276 65.169 30.837 65.381 31.605C65.5931 32.373 66.0104 33.0719 66.59 33.63C66.6378 33.672 66.6962 33.7006 66.7591 33.713C66.8221 33.7253 66.8873 33.7208 66.9479 33.7C67.009 33.6765 67.0622 33.637 67.1019 33.5858C67.1416 33.5347 67.1661 33.4739 67.1728 33.41C67.2805 32.5062 67.6113 31.6416 68.1368 30.8907C68.6622 30.1399 69.3665 29.5253 70.1888 29.1C69.9852 30.192 70.1132 31.3184 70.5569 32.34C70.5774 32.388 70.6095 32.4303 70.6505 32.4634C70.6914 32.4965 70.74 32.5194 70.7921 32.53C70.8437 32.5411 70.8972 32.5406 70.9486 32.5285C71 32.5164 71.0478 32.4929 71.0886 32.46C71.8964 31.8403 72.7788 31.3197 73.7161 30.91C73.3067 31.2794 72.9889 31.7354 72.7869 32.2432C72.5849 32.7509 72.5041 33.2971 72.5506 33.84C72.6338 34.7932 73.1006 35.6752 73.8482 36.2921C74.5958 36.9089 75.5633 37.2103 76.538 37.13C77.3392 37.0612 78.0944 36.7341 78.685 36.2C79.554 38.42 82.8768 49.06 77.2536 70.2C69.6674 72.43 68.461 74.77 67.4079 76.84C67.0664 77.5921 66.6115 78.2899 66.0584 78.91C65.5239 79.649 65.2078 80.5177 65.1446 81.4209C65.0815 82.324 65.2739 83.2267 65.7005 84.03C67.1012 86.89 71.7122 90.03 85.6782 88.88C95.2887 88.08 101.208 85.88 103.274 82.34C103.693 81.6619 103.944 80.8975 104.008 80.1076C104.072 79.3177 103.947 78.5241 103.642 77.79C101.597 73.01 96.3622 69.14 91.3729 68.67C90.5754 60.96 88.1319 42.89 82.3451 35.67C82.5899 35.695 82.8366 35.695 83.0813 35.67C84.0567 35.5861 84.9584 35.1274 85.5889 34.3946C86.2193 33.6617 86.5272 32.7144 86.445 31.76C86.3814 31.0427 86.0988 30.3607 85.6339 29.8026C85.1689 29.2444 84.5432 28.8358 83.8378 28.63C85.8073 28.4626 87.7915 28.6422 89.6962 29.16C89.7423 29.1821 89.793 29.1935 89.8444 29.1935C89.8958 29.1935 89.9465 29.1821 89.9926 29.16C90.038 29.1322 90.0757 29.094 90.1024 29.0487C90.1292 29.0033 90.1442 28.9523 90.146 28.9C90.1717 27.6563 89.8156 26.4337 89.1236 25.39C90.1625 25.4859 91.1607 25.8332 92.0281 26.4005C92.8956 26.9679 93.605 27.7375 94.0925 28.64C94.1207 28.6962 94.1643 28.7437 94.2185 28.7773C94.2726 28.8108 94.3351 28.829 94.3992 28.83C94.4633 28.829 94.5258 28.8108 94.5799 28.7773C94.634 28.7437 94.6777 28.6962 94.7059 28.64C95.077 27.8305 95.2159 26.9376 95.1078 26.0568C94.9998 25.176 94.6488 24.3406 94.0925 23.64C96.0146 24.19 98.3865 27.04 99.2044 28.24C99.2396 28.2896 99.2872 28.3295 99.3428 28.3557C99.3983 28.382 99.4598 28.3938 99.5214 28.39C99.5863 28.3806 99.647 28.3528 99.696 28.3102C99.745 28.2676 99.7803 28.2119 99.7975 28.15C100.1 27.1583 100.2 26.1178 100.092 25.0882C99.9827 24.0587 99.6674 23.0602 99.1635 22.15C102.302 22.45 106.167 27.06 106.208 27.15C106.254 27.2045 106.315 27.2442 106.385 27.2638C106.454 27.2835 106.528 27.2821 106.596 27.26C106.666 27.2377 106.727 27.1931 106.767 27.1332C106.808 27.0733 106.827 27.0017 106.821 26.93C106.83 24.7374 106.304 22.5743 105.288 20.62C109.081 20.9 114.837 26.4 114.898 26.46C114.948 26.5085 115.013 26.5403 115.083 26.5511C115.152 26.5618 115.224 26.551 115.287 26.52C115.35 26.4914 115.403 26.4443 115.437 26.3852C115.472 26.3261 115.487 26.2579 115.481 26.19C115.041 20.62 109.531 16.85 109.275 16.68ZM90.9844 72.29C90.8506 73.3407 90.4101 74.3314 89.7157 75.1437C89.0212 75.9559 88.1022 76.5553 87.0686 76.87C84.165 77.87 80.0652 77.21 78.1227 75.43C77.727 75.1157 77.4312 74.6976 77.27 74.2246C77.1088 73.7517 77.089 73.2436 77.2127 72.76L77.4581 71.88C79.9728 72.7941 82.6511 73.1989 85.3305 73.07C87.4176 72.9877 89.3916 72.1208 90.8413 70.65C90.9333 71.56 90.9742 72.14 90.9844 72.29ZM90.7492 69.69C87.2424 74.3 79.2371 71.79 77.6319 71.22C78.1022 69.52 78.5146 67.8866 78.869 66.32C80.6758 67.411 82.7974 67.8956 84.9114 67.7C86.8274 67.5011 88.6763 66.8972 90.3301 65.93C90.5039 67.39 90.647 68.67 90.7492 69.69ZM90.238 65.2C84.1037 68.8 79.8914 66.2 78.9917 65.61C79.3393 64.04 79.6256 62.54 79.8812 61.11C81.5296 61.6306 83.2661 61.831 84.9931 61.7C86.5724 61.5775 88.1047 61.1166 89.4815 60.35C89.8188 62.08 90.0438 63.77 90.238 65.2ZM80.0141 60.43C80.2697 58.93 80.4742 57.49 80.6275 56.14C81.9803 56.624 83.4252 56.8117 84.8602 56.69C86.2011 56.5788 87.5017 56.1866 88.6738 55.54C88.9498 56.93 89.185 58.3 89.3997 59.63C87.9814 60.3932 86.416 60.8586 84.8034 60.9963C83.1908 61.1341 81.5666 60.9412 80.0345 60.43H80.0141ZM80.6991 55.43C80.832 54.15 80.9342 52.93 80.9956 51.78C82.1506 52.1552 83.3713 52.298 84.5842 52.2C85.7069 52.1022 86.7932 51.7605 87.7638 51.2C88.0399 52.39 88.3057 53.6 88.5409 54.79C87.3684 55.4597 86.0581 55.8656 84.7052 55.978C83.3523 56.0904 81.9907 55.9067 80.7195 55.44L80.6991 55.43ZM81.0365 51.07C81.0365 50 81.0978 48.99 81.0876 48.07C81.8428 48.2044 82.6128 48.2414 83.3778 48.18C84.5582 48.1021 85.6922 47.7 86.6494 47.02C86.9868 48.18 87.3038 49.37 87.59 50.57C86.6041 51.1134 85.509 51.4405 84.3809 51.5286C83.2528 51.6167 82.1185 51.4636 81.0569 51.08L81.0365 51.07ZM81.0876 47.34C81.0876 46.15 81.0058 45.06 80.9138 44.06C81.4635 44.1817 82.0292 44.2188 82.5905 44.17C83.6036 44.0806 84.5758 43.7361 85.4123 43.17C85.7702 44.17 86.1178 45.17 86.4347 46.26C85.674 46.7956 84.807 47.1694 83.8895 47.3571C82.972 47.5449 82.0245 47.5424 81.1081 47.35L81.0876 47.34ZM80.8525 43.34C80.7639 42.5 80.6616 41.73 80.5457 41.03C80.8687 41.0609 81.194 41.0609 81.517 41.03C82.461 40.9656 83.3612 40.6162 84.0934 40.03C84.4717 40.82 84.8194 41.66 85.167 42.53C84.563 42.9788 83.8618 43.2861 83.1174 43.4283C82.3729 43.5704 81.6051 43.5436 80.8729 43.35L80.8525 43.34ZM80.4333 40.34C80.2799 39.54 80.1265 38.85 79.9732 38.26C80.184 38.28 80.3963 38.28 80.6071 38.26C81.3787 38.2083 82.1051 37.885 82.6519 37.35C83.0786 37.9946 83.4677 38.6624 83.8174 39.35C83.368 39.7508 82.8329 40.0486 82.251 40.2216C81.6691 40.3946 81.0551 40.4384 80.4537 40.35L80.4333 40.34ZM79.7687 37.54C79.5744 36.88 79.4006 36.39 79.2677 36.05H79.7074C80.2497 36.0013 80.7738 35.8338 81.2409 35.56C81.6056 35.9435 81.9469 36.3475 82.2633 36.77C81.958 37.102 81.5683 37.3491 81.1337 37.4861C80.6991 37.6231 80.2353 37.6451 79.7892 37.55L79.7687 37.54ZM81.1081 34.85C80.7724 35.075 80.3944 35.2324 79.9959 35.3131C79.5975 35.3938 79.1866 35.3961 78.7872 35.32C78.1544 35.1929 77.5805 34.8691 77.1512 34.397C76.7219 33.9248 76.4602 33.3295 76.405 32.7C76.3699 32.3221 76.4114 31.9412 76.5272 31.5791C76.643 31.217 76.8308 30.8809 77.0798 30.59C77.3294 30.287 77.6393 30.0367 77.9909 29.8545C78.3424 29.6723 78.7281 29.5619 79.1246 29.53H79.5642C79.9435 29.5487 80.3153 29.6404 80.6582 29.8C81.1327 30.0188 81.5402 30.3556 81.8398 30.7768C82.1395 31.198 82.3208 31.6887 82.3656 32.2C82.4175 32.7107 82.3304 33.2257 82.1132 33.6929C81.8959 34.1601 81.5562 34.5627 81.1285 34.86L81.1081 34.85ZM84.1752 3.01999C85.4868 2.52295 86.8636 2.20986 88.2648 2.09C89.7291 1.94115 91.2089 2.1084 92.5998 2.57999C90.463 3.15999 85.443 4.74 84.1752 7.16C84.1426 7.21095 84.1252 7.26985 84.1252 7.32999C84.1252 7.39012 84.1426 7.44905 84.1752 7.5C84.2072 7.55031 84.2527 7.59095 84.3069 7.61743C84.361 7.64391 84.4216 7.6552 84.482 7.64999C86.117 7.68824 87.7176 8.1174 89.1441 8.89999C87.3242 9.22999 83.5925 10.13 82.5087 12.19C82.4791 12.2402 82.4635 12.2971 82.4635 12.355C82.4635 12.4129 82.4791 12.4698 82.5087 12.52C82.5402 12.5714 82.5854 12.6134 82.6394 12.6416C82.6934 12.6698 82.7543 12.6831 82.8154 12.68C84.3885 12.6871 85.9047 13.2561 87.0788 14.28C85.5248 14.41 82.018 14.9 81.1183 16.57C81.0838 16.624 81.0656 16.6864 81.0656 16.75C81.0656 16.8136 81.0838 16.876 81.1183 16.93C81.1548 16.9847 81.2081 17.0268 81.2705 17.0501C81.333 17.0735 81.4013 17.0769 81.4659 17.06C82.1038 16.9346 82.7631 16.96 83.3891 17.1339C84.015 17.3078 84.5895 17.6253 85.0647 18.06C84.0808 18.077 83.1179 18.3417 82.2691 18.8286C81.4202 19.3156 80.714 20.0083 80.2186 20.84C80.1861 20.8929 80.169 20.9533 80.169 21.015C80.169 21.0766 80.1861 21.1371 80.2186 21.19C80.2538 21.2419 80.3029 21.2834 80.3606 21.3098C80.4183 21.3363 80.4824 21.3467 80.5457 21.34C81.5119 21.2747 82.4785 21.461 83.3471 21.88C81.6105 23.5227 80.2906 25.5397 79.4927 27.77C78.7668 22.97 76.497 6.82 84.257 3.03L84.1752 3.01999ZM71.1192 22.52C71.9461 21.56 73.0291 20.8434 74.2478 20.45C74.3091 20.4328 74.3645 20.3995 74.4078 20.3537C74.451 20.3078 74.4806 20.2512 74.4932 20.19C74.5031 20.1284 74.496 20.0653 74.4726 20.0073C74.4492 19.9493 74.4104 19.8984 74.3602 19.86C73.3483 19.118 72.1567 18.6458 70.9021 18.4898C69.6475 18.3338 68.373 18.4993 67.2035 18.97C68.0316 16.47 70.9454 15.97 71.0783 15.91C71.1437 15.9018 71.205 15.8745 71.2543 15.8317C71.3036 15.7889 71.3384 15.7325 71.3544 15.67C71.3694 15.6071 71.3669 15.5415 71.3472 15.4799C71.3274 15.4183 71.291 15.3631 71.2419 15.32C69.3403 13.76 64.811 14.97 63.0627 15.52C63.9187 13.665 65.4652 12.1989 67.3875 11.42C67.4456 11.4007 67.4973 11.3664 67.5369 11.3206C67.5765 11.2747 67.6026 11.2192 67.6124 11.16C67.6229 11.1017 67.618 11.0418 67.5984 10.9858C67.5787 10.9298 67.5448 10.8797 67.4999 10.84C65.1689 8.89 60.0978 9.72 57.9508 10.19C59.2721 8.50248 61.01 7.17083 63.0014 6.31998C63.059 6.29981 63.1101 6.26516 63.1495 6.21951C63.189 6.17386 63.2155 6.11885 63.2263 6.06C63.2389 6.0017 63.235 5.94117 63.2152 5.88483C63.1954 5.82849 63.1604 5.77843 63.1139 5.73999C60.3432 3.45999 53.4011 4.06997 50.8451 4.37997C54.7098 0.719974 61.0691 0.73999 61.1304 0.73999C72.295 1.57999 77.5808 22.33 78.7872 27.86C76.7278 25.501 74.1092 23.6711 71.1601 22.53L71.1192 22.52ZM70.9659 31.77C70.6945 30.7876 70.6945 29.7524 70.9659 28.77C70.9849 28.7106 70.9863 28.6472 70.97 28.587C70.9537 28.5268 70.9204 28.4724 70.8739 28.43C70.8294 28.3862 70.7732 28.3555 70.7118 28.3413C70.6503 28.3272 70.586 28.3302 70.5263 28.35C69.5353 28.6954 68.6518 29.2843 67.9607 30.0602C67.2695 30.836 66.794 31.7726 66.5798 32.78C66.2013 32.1973 65.9729 31.5336 65.9141 30.8456C65.8554 30.1577 65.968 29.466 66.2424 28.83C66.2772 28.778 66.2957 28.7172 66.2957 28.655C66.2957 28.5928 66.2772 28.532 66.2424 28.48C66.1986 28.4319 66.1417 28.3969 66.0783 28.3792C66.015 28.3615 65.9478 28.3618 65.8846 28.38C63.9011 28.95 62.6742 32.5 62.2346 34.03C61.349 32.612 61.0355 30.9219 61.3554 29.29C61.368 29.2325 61.3653 29.1729 61.3474 29.1168C61.3295 29.0607 61.297 29.0102 61.2531 28.97C61.2109 28.926 61.1565 28.895 61.0966 28.8808C61.0367 28.8666 60.9738 28.8698 60.9157 28.89C58.4824 29.58 56.7546 33.29 56.0594 35.06C55.4968 33.4188 55.3529 31.668 55.6402 29.96C55.6571 29.902 55.6575 29.8406 55.6413 29.7824C55.6251 29.7242 55.5929 29.6715 55.5482 29.63C55.5046 29.588 55.4502 29.5584 55.3908 29.5443C55.3314 29.5302 55.2691 29.5322 55.2108 29.55C52.3378 30.39 49.6182 35.25 48.5856 37.28C47.8393 32.99 50.7224 28.73 50.7429 28.7C52.4809 26.5 55.2721 25.51 58.462 25.24C65.6699 24.64 74.8203 27.76 78.2044 29.01C75.6009 29.3515 73.1188 30.2979 70.9659 31.77ZM76.8958 29.92L76.722 30.08H76.4152L76.8958 29.92ZM73.1845 33.92C73.1509 33.5357 73.1951 33.1488 73.3148 32.7813C73.4344 32.4138 73.627 32.073 73.8816 31.7785C74.1361 31.484 74.4476 31.2416 74.7982 31.0651C75.1488 30.8886 75.5315 30.7815 75.9245 30.75H76.2312V30.8C76.2312 30.85 76.1801 30.91 76.1494 30.96C76.0795 31.0962 76.0181 31.2365 75.9654 31.38L75.904 31.59C75.8627 31.7309 75.8319 31.8746 75.812 32.02V32.21C75.7916 32.4262 75.7916 32.6438 75.812 32.86C75.8277 33.0421 75.8585 33.2227 75.904 33.4C75.904 33.46 75.9041 33.52 75.9552 33.58L76.0779 33.92L76.1699 34.11C76.2183 34.2098 76.2729 34.3067 76.3335 34.4L76.4561 34.59C76.5151 34.6775 76.58 34.761 76.6504 34.84L76.8038 35.01C76.8769 35.0916 76.9555 35.1684 77.0389 35.24L77.2127 35.38C77.3004 35.4522 77.3926 35.519 77.4888 35.58L77.6626 35.69C77.8099 35.7719 77.9638 35.8421 78.1227 35.9C77.6502 36.2925 77.0638 36.5303 76.4459 36.58C76.0453 36.6169 75.6411 36.5748 75.2575 36.4561C74.8738 36.3375 74.5184 36.1446 74.2123 35.8891C73.9062 35.6336 73.6557 35.3205 73.4757 34.9685C73.2956 34.6165 73.1896 34.2328 73.164 33.84L73.1845 33.92ZM102.987 78.21C103.248 78.8583 103.352 79.5571 103.29 80.2512C103.228 80.9453 103.002 81.6159 102.629 82.21C101.29 84.49 97.2414 87.42 85.5861 88.4C71.2726 89.59 67.3568 86.11 66.2833 83.92C65.9235 83.2377 65.7566 82.4738 65.7997 81.7073C65.8428 80.9408 66.0945 80.1995 66.5287 79.56C67.1294 78.8919 67.6256 78.1404 68.0009 77.33C69.0233 75.33 70.0968 73.27 77.0082 71.16C76.8753 71.67 76.7322 72.16 76.5891 72.7C76.4203 73.3014 76.435 73.9379 76.6311 74.5313C76.8273 75.1247 77.1965 75.649 77.6932 76.04C78.7152 76.8369 79.8878 77.429 81.1438 77.7824C82.3999 78.1359 83.7149 78.2438 85.0136 78.1C85.8078 78.0338 86.5906 77.8727 87.3446 77.62C88.5028 77.2635 89.5315 76.5883 90.3075 75.6749C91.0836 74.7616 91.5741 73.6489 91.7205 72.47V72.4C91.7205 72.19 91.6285 71.15 91.4649 69.54C93.9568 69.9352 96.3105 70.9261 98.3169 72.4246C100.323 73.923 101.921 75.8828 102.967 78.13L102.987 78.21ZM85.7497 32.01C85.7834 32.3935 85.7395 32.7797 85.6205 33.1465C85.5015 33.5134 85.3098 33.8538 85.0563 34.1481C84.8028 34.4425 84.4925 34.6852 84.143 34.8622C83.7936 35.0393 83.412 35.1473 83.0199 35.18C82.677 35.2125 82.3309 35.1854 81.9975 35.1C82.0589 35.05 82.0998 34.99 82.1611 34.93L82.2429 34.84C82.3349 34.73 82.4269 34.61 82.5087 34.49C82.5803 34.38 82.6417 34.26 82.703 34.15L82.7643 34.02C82.7643 33.93 82.8359 33.84 82.8666 33.74C82.8973 33.64 82.8666 33.64 82.9177 33.59C82.9475 33.4982 82.9715 33.4047 82.9893 33.31V33.16V32.86C82.994 32.8134 82.994 32.7666 82.9893 32.72C82.9995 32.5702 82.9995 32.4198 82.9893 32.27C82.9893 32.12 82.9893 31.98 82.9177 31.83C82.8461 31.68 82.9177 31.74 82.9177 31.69C82.9177 31.64 82.8666 31.5 82.8359 31.41L82.7745 31.25C82.7414 31.1649 82.7038 31.0814 82.6621 31C82.6389 30.948 82.6115 30.8978 82.5803 30.85C82.5803 30.77 82.4883 30.69 82.4372 30.61L82.3451 30.48C82.2824 30.3867 82.2105 30.2996 82.1305 30.22L82.0691 30.14C81.9719 30.0383 81.8696 29.9415 81.7624 29.85L81.6397 29.76L81.4659 29.62C81.7708 29.4895 82.0954 29.4084 82.4269 29.38C83.2095 29.2952 83.9948 29.5153 84.6128 29.9925C85.2309 30.4697 85.6319 31.1657 85.7293 31.93L85.7497 32.01ZM104.705 20.01C104.645 20.0154 104.587 20.0357 104.537 20.0689C104.487 20.1021 104.446 20.1472 104.419 20.2C104.389 20.252 104.374 20.3105 104.374 20.37C104.374 20.4295 104.389 20.488 104.419 20.54C105.441 22.2075 106.025 24.0975 106.116 26.04C104.715 24.54 101.382 21.34 98.5808 21.58C98.5215 21.5841 98.4644 21.604 98.4158 21.6375C98.3671 21.671 98.3287 21.7168 98.3047 21.77C98.2752 21.822 98.2597 21.8805 98.2597 21.94C98.2597 21.9995 98.2752 22.058 98.3047 22.11C99.3085 23.6905 99.673 25.5805 99.3271 27.41C98.3047 26.05 95.5238 22.82 93.2439 23.02C93.1775 23.0229 93.1135 23.0454 93.0605 23.0847C93.0076 23.1241 92.9681 23.1782 92.9474 23.24C92.9222 23.2994 92.9165 23.365 92.9312 23.4277C92.9459 23.4904 92.9801 23.5472 93.0292 23.59C93.5836 24.1446 93.9895 24.8245 94.2107 25.5695C94.4318 26.3144 94.4615 27.1012 94.297 27.86C93.662 26.9115 92.7893 26.1378 91.762 25.6127C90.7347 25.0875 89.5871 24.8284 88.4284 24.86C88.3638 24.864 88.3015 24.8846 88.2476 24.9197C88.1938 24.9549 88.1503 25.0032 88.1217 25.06C88.0966 25.1173 88.088 25.1803 88.0971 25.242C88.1061 25.3037 88.1323 25.3619 88.1728 25.41C88.8731 26.3319 89.2978 27.4258 89.3997 28.57C87.4959 28.1058 85.526 27.9571 83.572 28.13C82.6252 28.2154 81.6857 28.3658 80.7604 28.58C84.85 24.93 100.033 12.15 108.866 17.32C108.917 17.32 113.712 20.63 114.663 25.39C112.884 23.69 108.007 19.68 104.705 19.96V20.01Z" fill="#E5E5E5"/>
<path d="M62.2448 40.68C52.7774 35.15 37.1654 48.47 33.1985 52.1C33.9987 49.7979 35.385 47.733 37.2267 46.1C37.2699 46.0669 37.3045 46.0243 37.3276 45.9756C37.3507 45.9269 37.3617 45.8736 37.3597 45.82C37.3598 45.7684 37.3468 45.7176 37.3218 45.6722C37.2968 45.6268 37.2606 45.5883 37.2165 45.56C36.3395 44.9802 35.3099 44.6607 34.2516 44.64C34.7962 43.9837 35.4959 43.4669 36.2903 43.1342C37.0848 42.8014 37.95 42.6627 38.8115 42.73C38.875 42.7392 38.9399 42.7299 38.9981 42.7032C39.0563 42.6765 39.1052 42.6337 39.1386 42.58C39.1709 42.5253 39.188 42.4632 39.188 42.4C39.188 42.3368 39.1709 42.2747 39.1386 42.22C38.7207 41.6016 38.1433 41.1021 37.4647 40.7719C36.7861 40.4418 36.0303 40.2928 35.274 40.34C36.6133 39.34 39.6498 38.98 40.8767 38.94C40.9422 38.9394 41.006 38.9201 41.0605 38.8846C41.1149 38.8491 41.1576 38.7988 41.1834 38.74C41.2085 38.6827 41.2171 38.6197 41.208 38.558C41.199 38.4963 41.1728 38.4381 41.1323 38.39C39.9483 37.0431 38.2699 36.2061 36.46 36.06C38.1571 34.06 43.1873 33.46 43.2384 33.45C43.3102 33.4446 43.3782 33.4162 43.4318 33.3692C43.4854 33.3222 43.5217 33.2592 43.5349 33.19C43.5518 33.1513 43.5606 33.1097 43.561 33.0676C43.5614 33.0255 43.5533 32.9837 43.5371 32.9447C43.521 32.9057 43.4971 32.8702 43.4669 32.8402C43.4367 32.8102 43.4008 32.7864 43.3611 32.77C41.7654 31.7761 39.9564 31.1567 38.0753 30.96C40.1201 28.48 46.6226 26.96 46.6941 26.96C46.7635 26.9441 46.8262 26.9078 46.8737 26.8559C46.9213 26.804 46.9514 26.7391 46.9599 26.67C46.968 26.6018 46.9547 26.5328 46.9219 26.4721C46.889 26.4114 46.8381 26.3619 46.7759 26.33C42.4205 24.11 37.1041 26.27 36.8587 26.33C30.7243 29.33 30.4483 39.28 31.0924 46.17C28.6795 37.8 23.4346 24.69 14.1615 24C13.8548 24 6.62645 24 2.65955 28.57C2.61951 28.6256 2.59802 28.692 2.59802 28.76C2.59802 28.828 2.61951 28.8944 2.65955 28.95C2.6953 29.0098 2.74836 29.0578 2.81206 29.0881C2.87576 29.1184 2.94721 29.1295 3.01736 29.12C3.10938 29.12 11.7487 27.75 15.2861 29.85C13.1282 30.9444 11.2726 32.5329 9.87766 34.48C9.83588 34.5387 9.81348 34.6085 9.81348 34.68C9.81348 34.7515 9.83588 34.8213 9.87766 34.88C9.91927 34.9372 9.97798 34.9804 10.0457 35.0037C10.1134 35.027 10.1869 35.0292 10.2559 35.01C10.3275 35.01 16.7379 33.26 19.6824 34.96C18.6457 35.4515 17.72 36.1409 16.9597 36.9875C16.1995 37.8342 15.62 38.821 15.2555 39.89C15.2343 39.9508 15.2318 40.0162 15.2481 40.0784C15.2645 40.1406 15.299 40.1967 15.3475 40.24C15.3933 40.2851 15.4518 40.3158 15.5155 40.3283C15.5792 40.3408 15.6453 40.3344 15.7053 40.31C17.2287 39.76 21.1956 38.67 23.2404 39.41C22.299 39.6779 21.4501 40.192 20.7853 40.8968C20.1205 41.6017 19.665 42.4706 19.4677 43.41C19.4578 43.4726 19.4659 43.5366 19.4912 43.5949C19.5165 43.6532 19.5579 43.7035 19.6109 43.74C19.6668 43.7716 19.7303 43.7882 19.7949 43.7882C19.8595 43.7882 19.923 43.7716 19.9789 43.74C20.9902 43.2307 22.1168 42.9801 23.2538 43.0116C24.3908 43.0431 25.5012 43.3556 26.4814 43.92C25.2048 44.4256 24.1119 45.2927 23.3426 46.41C23.3176 46.4562 23.3044 46.5077 23.3044 46.56C23.3044 46.6123 23.3176 46.6638 23.3426 46.71C23.3616 46.7593 23.3916 46.8038 23.4306 46.8401C23.4695 46.8765 23.5163 46.9038 23.5676 46.92C26.5769 47.9759 29.2543 49.7781 31.3377 52.15C26.2871 50.24 9.15173 44.49 3.14005 52.15C2.99691 52.36 -0.387219 57.35 1.09525 62.24C1.11568 62.3056 1.1559 62.3636 1.21064 62.4064C1.26537 62.4493 1.33212 62.4749 1.40202 62.48H1.45313C1.51442 62.4736 1.57296 62.4518 1.62311 62.4168C1.67327 62.3817 1.7133 62.3346 1.73937 62.28C1.73937 62.21 4.7248 55.77 7.81243 54.28C7.62826 56.2525 7.9225 58.2396 8.67124 60.08C8.695 60.1458 8.73945 60.2025 8.79823 60.242C8.85701 60.2816 8.92711 60.3019 8.99842 60.3C9.07188 60.2989 9.1431 60.2751 9.20188 60.232C9.26066 60.1889 9.30396 60.1287 9.32556 60.06C9.32556 60.01 11.0125 54.93 13.5276 53.62C13.4156 54.5555 13.4934 55.5034 13.7566 56.4094C14.0197 57.3155 14.4631 58.1618 15.0612 58.9C15.1022 58.949 15.1568 58.9855 15.2185 59.005C15.2801 59.0245 15.3462 59.0262 15.4088 59.01C15.4718 58.9975 15.5297 58.9671 15.5751 58.9226C15.6206 58.8782 15.6516 58.8216 15.6644 58.76C15.9609 57.5 16.9527 54.4 18.3533 53.26C18.1396 54.0276 18.1387 54.837 18.3508 55.605C18.5628 56.373 18.9801 57.0719 19.5598 57.63C19.6075 57.672 19.6659 57.7006 19.7289 57.713C19.7918 57.7253 19.857 57.7208 19.9176 57.7C19.9787 57.6765 20.032 57.637 20.0716 57.5858C20.1113 57.5347 20.1358 57.4739 20.1425 57.41C20.2502 56.5062 20.581 55.6416 21.1065 54.8907C21.6319 54.1399 22.3362 53.5253 23.1586 53.1C22.955 54.192 23.0829 55.3184 23.5267 56.34C23.5471 56.388 23.5792 56.4303 23.6202 56.4634C23.6612 56.4965 23.7098 56.5194 23.7618 56.53C23.8134 56.5411 23.8669 56.5406 23.9183 56.5285C23.9697 56.5164 24.0176 56.4929 24.0583 56.46C24.8661 55.8403 25.7486 55.3197 26.6859 54.91C26.2764 55.2794 25.9586 55.7354 25.7567 56.2432C25.5547 56.7509 25.4738 57.2971 25.5203 57.84C25.6036 58.7932 26.0703 59.6752 26.8179 60.2921C27.5656 60.9089 28.533 61.2103 29.5077 61.13C30.3089 61.0612 31.0641 60.7341 31.6547 60.2C32.5237 62.42 35.8465 73.06 30.2233 94.2C22.6372 96.43 21.4307 98.77 20.3777 100.84C20.0361 101.592 19.5813 102.29 19.0281 102.91C18.4936 103.649 18.1775 104.518 18.1144 105.421C18.0512 106.324 18.2436 107.227 18.6703 108.03C20.071 110.89 24.682 114.03 38.6479 112.88C48.2584 112.08 54.1781 109.88 56.2433 106.34C56.6625 105.662 56.9141 104.898 56.978 104.108C57.0419 103.318 56.9163 102.524 56.6114 101.79C54.5666 97.01 49.3319 93.14 44.3426 92.67C43.5451 84.96 41.1016 66.89 35.3149 59.67C35.5596 59.695 35.8063 59.695 36.051 59.67C37.0265 59.5861 37.9281 59.1274 38.5586 58.3946C39.1891 57.6617 39.4969 56.7144 39.4147 55.76C39.3511 55.0427 39.0685 54.3607 38.6036 53.8026C38.1387 53.2444 37.5129 52.8358 36.8076 52.63C38.777 52.4626 40.7612 52.6422 42.6659 53.16C42.7121 53.1821 42.7628 53.1935 42.8141 53.1935C42.8655 53.1935 42.9162 53.1821 42.9624 53.16C43.0077 53.1322 43.0454 53.094 43.0722 53.0487C43.0989 53.0033 43.1139 52.9523 43.1158 52.9C43.1415 51.6563 42.7853 50.4337 42.0934 49.39C43.1323 49.4859 44.1304 49.8332 44.9979 50.4005C45.8653 50.9679 46.5747 51.7375 47.0622 52.64C47.0905 52.6962 47.1341 52.7437 47.1882 52.7773C47.2423 52.8108 47.3049 52.829 47.3689 52.83C47.433 52.829 47.4955 52.8108 47.5496 52.7773C47.6038 52.7437 47.6474 52.6962 47.6756 52.64C48.0467 51.8305 48.1856 50.9376 48.0776 50.0568C47.9695 49.176 47.6185 48.3406 47.0622 47.64C48.9843 48.19 51.3563 51.04 52.1742 52.24C52.2093 52.2896 52.257 52.3295 52.3125 52.3557C52.368 52.382 52.4295 52.3938 52.4911 52.39C52.556 52.3806 52.6167 52.3528 52.6657 52.3102C52.7147 52.2676 52.75 52.2119 52.7672 52.15C53.0701 51.1583 53.17 50.1178 53.0612 49.0882C52.9525 48.0587 52.6371 47.0602 52.1333 46.15C55.272 46.45 59.1367 51.06 59.1776 51.15C59.2234 51.2045 59.2851 51.2442 59.3544 51.2638C59.4238 51.2835 59.4976 51.2821 59.5661 51.26C59.6361 51.2377 59.6963 51.1931 59.7371 51.1332C59.778 51.0733 59.7969 51.0017 59.791 50.93C59.7996 48.7374 59.2739 46.5743 58.2574 44.62C62.0505 44.9 67.8066 50.4 67.868 50.46C67.9182 50.5085 67.9827 50.5403 68.0524 50.5511C68.122 50.5618 68.1934 50.551 68.2565 50.52C68.3197 50.4914 68.3724 50.4443 68.4072 50.3852C68.442 50.3261 68.4572 50.2579 68.4507 50.19C68.0111 44.62 62.5004 40.85 62.2448 40.68ZM43.9541 96.29C43.8203 97.3407 43.3799 98.3314 42.6854 99.1437C41.991 99.9559 41.0719 100.555 40.0383 100.87C37.1347 101.87 33.0349 101.21 31.0924 99.43C30.6967 99.1157 30.4009 98.6976 30.2397 98.2246C30.0786 97.7517 30.0587 97.2436 30.1824 96.76L30.4278 95.88C32.9425 96.7941 35.6208 97.1989 38.3003 97.07C40.3873 96.9877 42.3614 96.1208 43.811 94.65C43.903 95.56 43.9439 96.14 43.9541 96.29ZM43.719 93.69C40.2122 98.3 32.2068 95.79 30.6016 95.22C31.0719 93.52 31.4843 91.8866 31.8387 90.32C33.6456 91.411 35.7671 91.8956 37.8811 91.7C39.7971 91.5011 41.6461 90.8972 43.2998 89.93C43.4736 91.39 43.6167 92.67 43.719 93.69ZM43.2078 89.2C37.0734 92.8 32.8611 90.2 31.9614 89.61C32.309 88.04 32.5953 86.54 32.8509 85.11C34.4993 85.6306 36.2359 85.831 37.9629 85.7C39.5421 85.5775 41.0745 85.1166 42.4512 84.35C42.7886 86.08 43.0135 87.77 43.2078 89.2ZM32.9838 84.43C33.2394 82.93 33.4439 81.49 33.5973 80.14C34.95 80.624 36.3949 80.8117 37.83 80.69C39.1708 80.5788 40.4714 80.1866 41.6435 79.54C41.9196 80.93 42.1547 82.3 42.3694 83.63C40.9512 84.3932 39.3857 84.8586 37.7731 84.9963C36.1605 85.1341 34.5363 84.9412 33.0043 84.43H32.9838ZM33.6688 79.43C33.8017 78.15 33.904 76.93 33.9653 75.78C35.1203 76.1552 36.341 76.298 37.5539 76.2C38.6767 76.1022 39.7629 75.7605 40.7336 75.2C41.0096 76.39 41.2754 77.6 41.5106 78.79C40.3381 79.4597 39.0278 79.8656 37.6749 79.978C36.322 80.0904 34.9605 79.9067 33.6893 79.44L33.6688 79.43ZM34.0062 75.07C34.0062 74 34.0675 72.99 34.0573 72.07C34.8125 72.2044 35.5825 72.2414 36.3475 72.18C37.5279 72.1021 38.6619 71.7 39.6192 71.02C39.9565 72.18 40.2735 73.37 40.5598 74.57C39.5738 75.1134 38.4788 75.4405 37.3506 75.5286C36.2225 75.6167 35.0882 75.4636 34.0266 75.08L34.0062 75.07ZM34.0573 71.34C34.0573 70.15 33.9755 69.06 33.8835 68.06C34.4332 68.1817 34.9989 68.2188 35.5602 68.17C36.5734 68.0806 37.5455 67.7361 38.3821 67.17C38.7399 68.17 39.0875 69.17 39.4045 70.26C38.6438 70.7956 37.7767 71.1694 36.8592 71.3571C35.9418 71.5449 34.9942 71.5424 34.0778 71.35L34.0573 71.34ZM33.8222 67.34C33.7336 66.5 33.6313 65.73 33.5154 65.03C33.8384 65.0609 34.1637 65.0609 34.4867 65.03C35.4307 64.9656 36.3309 64.6162 37.0632 64.03C37.4414 64.82 37.7891 65.66 38.1367 66.53C37.5327 66.9788 36.8315 67.2861 36.0871 67.4283C35.3427 67.5704 34.5748 67.5436 33.8426 67.35L33.8222 67.34ZM33.403 64.34C33.2496 63.54 33.0963 62.85 32.9429 62.26C33.1537 62.28 33.366 62.28 33.5768 62.26C34.3484 62.2083 35.0748 61.885 35.6216 61.35C36.0483 61.9946 36.4375 62.6624 36.7871 63.35C36.3378 63.7508 35.8026 64.0486 35.2207 64.2216C34.6389 64.3946 34.0249 64.4384 33.4234 64.35L33.403 64.34ZM32.7384 61.54C32.5442 60.88 32.3704 60.39 32.2375 60.05H32.6771C33.2194 60.0013 33.7435 59.8338 34.2107 59.56C34.5753 59.9435 34.9167 60.3475 35.2331 60.77C34.9277 61.102 34.538 61.3491 34.1034 61.4861C33.6689 61.6231 33.205 61.6451 32.7589 61.55L32.7384 61.54ZM34.0778 58.85C33.7422 59.075 33.3641 59.2324 32.9657 59.3131C32.5672 59.3938 32.1563 59.3961 31.7569 59.32C31.1241 59.1929 30.5503 58.8691 30.121 58.397C29.6917 57.9248 29.4299 57.3295 29.3748 56.7C29.3396 56.3221 29.3811 55.9412 29.4969 55.5791C29.6127 55.217 29.8005 54.8809 30.0495 54.59C30.2991 54.287 30.6091 54.0367 30.9606 53.8545C31.3121 53.6723 31.6978 53.5619 32.0943 53.53H32.534C32.9132 53.5487 33.285 53.6404 33.6279 53.8C34.1025 54.0188 34.5099 54.3556 34.8096 54.7768C35.1092 55.198 35.2905 55.6887 35.3353 56.2C35.3872 56.7107 35.3002 57.2257 35.0829 57.6929C34.8656 58.1601 34.5259 58.5627 34.0982 58.86L34.0778 58.85ZM37.145 27.02C38.4565 26.523 39.8334 26.2099 41.2346 26.09C42.6988 25.9411 44.1786 26.1084 45.5695 26.58C43.4327 27.16 38.4127 28.74 37.145 31.16C37.1123 31.211 37.095 31.2699 37.095 31.33C37.095 31.3901 37.1123 31.4491 37.145 31.5C37.1769 31.5503 37.2225 31.5909 37.2766 31.6174C37.3308 31.6439 37.3914 31.6552 37.4517 31.65C39.0867 31.6882 40.6874 32.1174 42.1138 32.9C40.2939 33.23 36.5622 34.13 35.4785 36.19C35.4488 36.2402 35.4333 36.2971 35.4333 36.355C35.4333 36.4129 35.4488 36.4698 35.4785 36.52C35.5099 36.5714 35.5551 36.6134 35.6091 36.6416C35.6632 36.6698 35.724 36.6831 35.7852 36.68C37.3582 36.6871 38.8744 37.2561 40.0486 38.28C38.4945 38.41 34.9877 38.9 34.088 40.57C34.0535 40.624 34.0353 40.6864 34.0353 40.75C34.0353 40.8136 34.0535 40.876 34.088 40.93C34.1245 40.9847 34.1778 41.0268 34.2402 41.0501C34.3027 41.0735 34.371 41.0769 34.4356 41.06C35.0735 40.9346 35.7329 40.96 36.3588 41.1339C36.9847 41.3078 37.5592 41.6253 38.0345 42.06C37.0505 42.077 36.0876 42.3417 35.2388 42.8286C34.3899 43.3156 33.6837 44.0083 33.1883 44.84C33.1558 44.8929 33.1387 44.9533 33.1387 45.015C33.1387 45.0766 33.1558 45.1371 33.1883 45.19C33.2235 45.2419 33.2727 45.2834 33.3304 45.3098C33.3881 45.3363 33.4521 45.3467 33.5154 45.34C34.4816 45.2747 35.4482 45.461 36.3168 45.88C34.5802 47.5227 33.2603 49.5397 32.4624 51.77C31.7365 46.97 29.4668 30.82 37.2267 27.03L37.145 27.02ZM24.089 46.52C24.9158 45.56 25.9988 44.8434 27.2175 44.45C27.2788 44.4328 27.3342 44.3995 27.3775 44.3537C27.4208 44.3078 27.4503 44.2512 27.4629 44.19C27.4728 44.1284 27.4657 44.0653 27.4423 44.0073C27.419 43.9493 27.3802 43.8984 27.33 43.86C26.3181 43.118 25.1264 42.6458 23.8718 42.4898C22.6172 42.3338 21.3427 42.4993 20.1732 42.97C21.0013 40.47 23.9151 39.97 24.0481 39.91C24.1134 39.9018 24.1748 39.8745 24.224 39.8317C24.2733 39.7889 24.3082 39.7325 24.3241 39.67C24.3392 39.6071 24.3367 39.5415 24.3169 39.4799C24.2971 39.4183 24.2607 39.3631 24.2116 39.32C22.31 37.76 17.7808 38.97 16.0325 39.52C16.8884 37.665 18.4349 36.1989 20.3572 35.42C20.4153 35.4007 20.467 35.3664 20.5066 35.3206C20.5463 35.2747 20.5724 35.2192 20.5821 35.16C20.5926 35.1017 20.5877 35.0418 20.5681 34.9858C20.5484 34.9298 20.5145 34.8797 20.4697 34.84C18.1386 32.89 13.0675 33.72 10.9205 34.19C12.2418 32.5025 13.9797 31.1708 15.9711 30.32C16.0287 30.2998 16.0798 30.2652 16.1193 30.2195C16.1588 30.1739 16.1853 30.1189 16.1961 30.06C16.2086 30.0017 16.2048 29.9412 16.185 29.8848C16.1652 29.8285 16.1301 29.7784 16.0836 29.74C13.3129 27.46 6.37085 28.07 3.81486 28.38C7.67952 24.72 14.0388 24.74 14.1002 24.74C25.2647 25.58 30.5505 46.33 31.7569 51.86C29.6975 49.501 27.0789 47.6711 24.1299 46.53L24.089 46.52ZM23.9356 55.77C23.6642 54.7876 23.6642 53.7524 23.9356 52.77C23.9546 52.7106 23.956 52.6472 23.9398 52.587C23.9235 52.5268 23.8901 52.4724 23.8436 52.43C23.7991 52.3862 23.743 52.3555 23.6815 52.3413C23.6201 52.3272 23.5558 52.3302 23.496 52.35C22.505 52.6954 21.6215 53.2843 20.9304 54.0602C20.2393 54.836 19.7637 55.7726 19.5495 56.78C19.171 56.1973 18.9426 55.5336 18.8838 54.8456C18.8251 54.1577 18.9377 53.466 19.2121 52.83C19.2469 52.778 19.2654 52.7172 19.2654 52.655C19.2654 52.5928 19.2469 52.532 19.2121 52.48C19.1683 52.4319 19.1114 52.3969 19.0481 52.3792C18.9847 52.3615 18.9175 52.3618 18.8543 52.38C16.8708 52.95 15.644 56.5 15.2043 58.03C14.3187 56.612 14.0052 54.9219 14.3251 53.29C14.3378 53.2325 14.335 53.1729 14.3171 53.1168C14.2992 53.0607 14.2667 53.0102 14.2228 52.97C14.1807 52.926 14.1263 52.895 14.0663 52.8808C14.0064 52.8666 13.9436 52.8698 13.8855 52.89C11.4522 53.58 9.72432 57.29 9.02909 59.06C8.46651 57.4188 8.3226 55.668 8.6099 53.96C8.62685 53.902 8.62725 53.8406 8.61102 53.7824C8.5948 53.7242 8.56259 53.6715 8.51789 53.63C8.47434 53.588 8.41994 53.5584 8.36051 53.5443C8.30108 53.5302 8.23885 53.5322 8.18048 53.55C5.30755 54.39 2.58797 59.25 1.55535 61.28C0.808996 56.99 3.69214 52.73 3.71259 52.7C5.45066 50.5 8.24182 49.51 11.4317 49.24C18.6396 48.64 27.79 51.76 31.1742 53.01C28.5706 53.3515 26.0886 54.2979 23.9356 55.77ZM29.8655 53.92L29.6917 54.08H29.385L29.8655 53.92ZM26.1542 57.92C26.1206 57.5357 26.1649 57.1488 26.2845 56.7813C26.4041 56.4138 26.5967 56.073 26.8513 55.7785C27.1058 55.484 27.4174 55.2416 27.7679 55.0651C28.1185 54.8886 28.5013 54.7815 28.8942 54.75H29.2009V54.8C29.2009 54.85 29.1498 54.91 29.1192 54.96C29.0492 55.0962 28.9878 55.2365 28.9351 55.38L28.8738 55.59C28.8324 55.7309 28.8016 55.8746 28.7818 56.02V56.21C28.7613 56.4262 28.7613 56.6438 28.7818 56.86C28.7974 57.0421 28.8282 57.2227 28.8738 57.4C28.8738 57.46 28.8738 57.52 28.9249 57.58L29.0476 57.92L29.1396 58.11C29.188 58.2098 29.2426 58.3067 29.3032 58.4L29.4259 58.59C29.4848 58.6775 29.5497 58.761 29.6201 58.84L29.7735 59.01C29.8467 59.0916 29.9252 59.1684 30.0086 59.24L30.1824 59.38C30.2701 59.4522 30.3623 59.519 30.4585 59.58L30.6323 59.69C30.7797 59.7719 30.9335 59.8421 31.0924 59.9C30.6199 60.2925 30.0335 60.5303 29.4156 60.58C29.015 60.6169 28.6109 60.5748 28.2272 60.4561C27.8435 60.3375 27.4881 60.1446 27.182 59.8891C26.876 59.6336 26.6255 59.3205 26.4454 58.9685C26.2653 58.6165 26.1593 58.2328 26.1338 57.84L26.1542 57.92ZM55.9571 102.21C56.2181 102.858 56.3216 103.557 56.2595 104.251C56.1974 104.945 55.9714 105.616 55.5992 106.21C54.2599 108.49 50.2112 111.42 38.5559 112.4C24.2423 113.59 20.3266 110.11 19.253 107.92C18.8933 107.238 18.7263 106.474 18.7694 105.707C18.8126 104.941 19.0642 104.2 19.4984 103.56C20.0992 102.892 20.5953 102.14 20.9707 101.33C21.9931 99.33 23.0666 97.27 29.978 95.16C29.8451 95.67 29.7019 96.16 29.5588 96.7C29.3901 97.3014 29.4047 97.9379 29.6009 98.5313C29.797 99.1247 30.1662 99.649 30.663 100.04C31.685 100.837 32.8575 101.429 34.1136 101.782C35.3696 102.136 36.6846 102.244 37.9833 102.1C38.7775 102.034 39.5604 101.873 40.3144 101.62C41.4726 101.264 42.5012 100.588 43.2773 99.6749C44.0533 98.7616 44.5438 97.6489 44.6902 96.47V96.4C44.6902 96.19 44.5982 95.15 44.4346 93.54C46.9266 93.9352 49.2802 94.9261 51.2867 96.4246C53.2931 97.923 54.8903 99.8828 55.9366 102.13L55.9571 102.21ZM38.7194 56.01C38.7531 56.3935 38.7092 56.7797 38.5902 57.1465C38.4712 57.5134 38.2795 57.8538 38.026 58.1481C37.7725 58.4425 37.4622 58.6852 37.1128 58.8622C36.7634 59.0393 36.3817 59.1473 35.9897 59.18C35.6467 59.2125 35.3006 59.1854 34.9673 59.1C35.0286 59.05 35.0695 58.99 35.1309 58.93L35.2126 58.84C35.3046 58.73 35.3967 58.61 35.4785 58.49C35.55 58.38 35.6114 58.26 35.6727 58.15L35.7341 58.02C35.7341 57.93 35.8056 57.84 35.8363 57.74C35.867 57.64 35.8363 57.64 35.8874 57.59C35.9173 57.4982 35.9412 57.4047 35.959 57.31V57.16V56.86C35.9637 56.8134 35.9637 56.7666 35.959 56.72C35.9692 56.5702 35.9692 56.4198 35.959 56.27C35.959 56.12 35.959 55.98 35.8874 55.83C35.8158 55.68 35.8874 55.74 35.8874 55.69C35.8874 55.64 35.8363 55.5 35.8056 55.41L35.7443 55.25C35.7111 55.1649 35.6736 55.0814 35.6318 55C35.6086 54.948 35.5812 54.8978 35.55 54.85C35.55 54.77 35.458 54.69 35.4069 54.61L35.3149 54.48C35.2522 54.3867 35.1803 54.2996 35.1002 54.22L35.0388 54.14C34.9417 54.0383 34.8393 53.9415 34.7321 53.85L34.6094 53.76L34.4356 53.62C34.7405 53.4895 35.0651 53.4084 35.3967 53.38C36.1793 53.2952 36.9645 53.5153 37.5826 53.9925C38.2006 54.4697 38.6017 55.1657 38.699 55.93L38.7194 56.01ZM57.6747 44.01C57.6144 44.0154 57.5566 44.0357 57.5065 44.0689C57.4564 44.1021 57.4158 44.1472 57.3884 44.2C57.3589 44.252 57.3433 44.3105 57.3433 44.37C57.3433 44.4295 57.3589 44.488 57.3884 44.54C58.4111 46.2075 58.9943 48.0975 59.0856 50.04C57.6849 48.54 54.3519 45.34 51.5505 45.58C51.4912 45.5841 51.4341 45.604 51.3855 45.6375C51.3369 45.671 51.2985 45.7168 51.2745 45.77C51.2449 45.822 51.2294 45.8805 51.2294 45.94C51.2294 45.9995 51.2449 46.058 51.2745 46.11C52.2782 47.6905 52.6428 49.5805 52.2969 51.41C51.2745 50.05 48.4936 46.82 46.2136 47.02C46.1472 47.0229 46.0832 47.0454 46.0303 47.0847C45.9773 47.1241 45.9378 47.1782 45.9171 47.24C45.8919 47.2994 45.8863 47.365 45.9009 47.4277C45.9156 47.4904 45.9498 47.5472 45.9989 47.59C46.5534 48.1446 46.9592 48.8245 47.1804 49.5695C47.4016 50.3144 47.4312 51.1012 47.2667 51.86C46.6317 50.9115 45.759 50.1378 44.7317 49.6127C43.7044 49.0875 42.5568 48.8284 41.3981 48.86C41.3335 48.864 41.2712 48.8846 41.2173 48.9197C41.1635 48.9549 41.12 49.0032 41.0914 49.06C41.0663 49.1173 41.0578 49.1803 41.0668 49.242C41.0758 49.3037 41.102 49.3619 41.1425 49.41C41.8428 50.3319 42.2676 51.4258 42.3694 52.57C40.4656 52.1058 38.4958 51.9571 36.5417 52.13C35.5949 52.2154 34.6554 52.3658 33.7301 52.58C37.8197 48.93 53.0023 36.15 61.8358 41.32C61.8869 41.32 66.682 44.63 67.6328 49.39C65.8538 47.69 60.977 43.68 57.6747 43.96V44.01Z" fill="#E5E5E5"/>
</svg>
