<svg width="62" height="60" viewBox="0 0 62 60" fill="none" xmlns="http://www.w3.org/2000/svg">
<g filter="url(#filter0_d_339_292)">
<path fill-rule="evenodd" clip-rule="evenodd" d="M31.4063 48C42.6993 48 51.8542 39.0457 51.8542 28C51.8542 16.9543 42.6993 8 31.4063 8C20.1132 8 10.9583 16.9543 10.9583 28C10.9583 39.0457 20.1132 48 31.4063 48Z" fill="white"/>
</g>
<path fill-rule="evenodd" clip-rule="evenodd" d="M34.0082 25.7991C33.6889 25.7003 33.3218 25.6345 32.9866 25.6345C32.5716 25.6345 31.6777 25.9143 31.6777 26.4577V27.7583H33.8007V29.948H31.6777V35.9903H29.5387V29.948H28.4852V27.7583H29.5387V26.6552C29.5387 24.9924 30.273 23.6094 32.0448 23.6094C32.6514 23.6094 33.7368 23.6423 34.3274 23.8563L34.0082 25.7991Z" fill="#444444"/>
<defs>
<filter id="filter0_d_339_292" x="0.958344" y="0" width="60.8958" height="60" filterUnits="userSpaceOnUse" color-interpolation-filters="sRGB">
<feFlood flood-opacity="0" result="BackgroundImageFix"/>
<feColorMatrix in="SourceAlpha" type="matrix" values="0 0 0 0 0 0 0 0 0 0 0 0 0 0 0 0 0 0 127 0" result="hardAlpha"/>
<feOffset dy="2"/>
<feGaussianBlur stdDeviation="5"/>
<feColorMatrix type="matrix" values="0 0 0 0 0 0 0 0 0 0 0 0 0 0 0 0 0 0 0.1 0"/>
<feBlend mode="normal" in2="BackgroundImageFix" result="effect1_dropShadow_339_292"/>
<feBlend mode="normal" in="SourceGraphic" in2="effect1_dropShadow_339_292" result="shape"/>
</filter>
</defs>
</svg>
