<svg width="70" height="68" viewBox="0 0 70 68" fill="none" xmlns="http://www.w3.org/2000/svg">
<g filter="url(#filter0_d_339_295)">
<path fill-rule="evenodd" clip-rule="evenodd" d="M34.9741 56C48.5257 56 59.5116 45.2548 59.5116 32C59.5116 18.7452 48.5257 8 34.9741 8C21.4224 8 10.4366 18.7452 10.4366 32C10.4366 45.2548 21.4224 56 34.9741 56Z" fill="#FA7436"/>
</g>
<g clip-path="url(#clip0_339_295)">
<path d="M41.6877 22.9336H29.3508C27.9416 22.9336 26.7948 24.0553 26.7948 25.4336V37.5003C26.7948 38.8789 27.9416 40.0003 29.3508 40.0003H41.6877C43.0973 40.0003 44.2437 38.8789 44.2437 37.5003V25.4336C44.2437 24.0553 43.0973 22.9336 41.6877 22.9336ZM43.2213 37.5003C43.2213 38.3273 42.5333 39.0003 41.6877 39.0003H29.3508C28.5053 39.0003 27.8172 38.3273 27.8172 37.5003V25.4336C27.8172 24.6066 28.5053 23.9336 29.3508 23.9336H41.6877C42.5333 23.9336 43.2213 24.6066 43.2213 25.4336V37.5003Z" fill="white"/>
<path d="M41.1426 24.9668C40.5789 24.9668 40.1202 25.4155 40.1202 25.9668C40.1202 26.5181 40.5789 26.9668 41.1426 26.9668C41.7063 26.9668 42.165 26.5181 42.165 25.9668C42.165 25.4155 41.7063 24.9668 41.1426 24.9668Z" fill="white"/>
<path d="M35.5194 26.9668C32.9825 26.9668 30.9186 28.9855 30.9186 31.4668C30.9186 33.9481 32.9825 35.9668 35.5194 35.9668C38.0563 35.9668 40.1202 33.9481 40.1202 31.4668C40.1202 28.9855 38.0563 26.9668 35.5194 26.9668ZM35.5194 34.9668C33.5462 34.9668 31.941 33.3968 31.941 31.4668C31.941 29.5368 33.5462 27.9668 35.5194 27.9668C37.4926 27.9668 39.0978 29.5368 39.0978 31.4668C39.0978 33.3968 37.4926 34.9668 35.5194 34.9668Z" fill="white"/>
</g>
<defs>
<filter id="filter0_d_339_295" x="0.436554" y="0" width="69.075" height="68" filterUnits="userSpaceOnUse" color-interpolation-filters="sRGB">
<feFlood flood-opacity="0" result="BackgroundImageFix"/>
<feColorMatrix in="SourceAlpha" type="matrix" values="0 0 0 0 0 0 0 0 0 0 0 0 0 0 0 0 0 0 127 0" result="hardAlpha"/>
<feOffset dy="2"/>
<feGaussianBlur stdDeviation="5"/>
<feColorMatrix type="matrix" values="0 0 0 0 0 0 0 0 0 0 0 0 0 0 0 0 0 0 0.1 0"/>
<feBlend mode="normal" in2="BackgroundImageFix" result="effect1_dropShadow_339_295"/>
<feBlend mode="normal" in="SourceGraphic" in2="effect1_dropShadow_339_295" result="shape"/>
</filter>
<clipPath id="clip0_339_295">
<rect width="17.4489" height="17.0667" fill="white" transform="translate(26.7948 22.9336)"/>
</clipPath>
</defs>
</svg>
