<svg width="61" height="60" viewBox="0 0 61 60" fill="none" xmlns="http://www.w3.org/2000/svg">
<g filter="url(#filter0_d_339_289)">
<path fill-rule="evenodd" clip-rule="evenodd" d="M30.4522 48C41.7453 48 50.9001 39.0457 50.9001 28C50.9001 16.9543 41.7453 8 30.4522 8C19.1591 8 10.0043 16.9543 10.0043 28C10.0043 39.0457 19.1591 48 30.4522 48Z" fill="white"/>
</g>
<path d="M37.9331 23.1597C37.3396 23.4143 36.7072 23.5831 36.0479 23.665C36.7262 23.2689 37.2439 22.6465 37.4872 21.8963C36.8549 22.265 36.1566 22.5255 35.4125 22.6709C34.8121 22.0455 33.9562 21.6582 33.0226 21.6582C31.2112 21.6582 29.7529 23.0963 29.7529 24.8592C29.7529 25.1128 29.7749 25.3567 29.8287 25.5889C27.1087 25.4592 24.7018 24.1841 23.0849 22.2416C22.8026 22.7206 22.6371 23.2689 22.6371 23.8592C22.6371 24.9675 23.2206 25.9499 24.0904 26.5187C23.5647 26.5089 23.049 26.3597 22.6121 26.1245C22.6121 26.1343 22.6121 26.147 22.6121 26.1597C22.6121 27.7148 23.7462 29.0065 25.2335 29.3041C24.9671 29.3753 24.6769 29.4094 24.3756 29.4094C24.1662 29.4094 23.9547 29.3977 23.7562 29.3548C24.1801 30.6221 25.3831 31.5538 26.8134 31.5841C25.7003 32.4358 24.2869 32.9489 22.7568 32.9489C22.4884 32.9489 22.2311 32.9372 21.9738 32.905C23.4231 33.8192 25.1407 34.3411 26.993 34.3411C33.0136 34.3411 36.3053 29.4631 36.3053 25.2348C36.3053 25.0933 36.3003 24.9567 36.2933 24.8211C36.9426 24.3704 37.4882 23.8075 37.9331 23.1597Z" fill="#444444"/>
<defs>
<filter id="filter0_d_339_289" x="0.00427246" y="0" width="60.8958" height="60" filterUnits="userSpaceOnUse" color-interpolation-filters="sRGB">
<feFlood flood-opacity="0" result="BackgroundImageFix"/>
<feColorMatrix in="SourceAlpha" type="matrix" values="0 0 0 0 0 0 0 0 0 0 0 0 0 0 0 0 0 0 127 0" result="hardAlpha"/>
<feOffset dy="2"/>
<feGaussianBlur stdDeviation="5"/>
<feColorMatrix type="matrix" values="0 0 0 0 0 0 0 0 0 0 0 0 0 0 0 0 0 0 0.1 0"/>
<feBlend mode="normal" in2="BackgroundImageFix" result="effect1_dropShadow_339_289"/>
<feBlend mode="normal" in="SourceGraphic" in2="effect1_dropShadow_339_289" result="shape"/>
</filter>
</defs>
</svg>
